<svg xmlns="http://www.w3.org/2000/svg" viewBox="0 0 32 32" width="24" height="24" style="fill: rgba(76,76,76,1);"><path d="M15.971 22.359c-2.662 0-4.969-1.597-5.856-4.081l-1.597 0.709c1.242 3.196 4.081 5.148 7.63 5.148 3.371 0 6.387-2.13 7.63-5.147l-1.597-0.708c-1.243 2.306-3.727 4.081-6.211 4.081zM10.825 13.309c0 0.784-0.636 1.42-1.42 1.42s-1.42-0.636-1.42-1.42c0-0.784 0.636-1.42 1.42-1.42s1.42 0.636 1.42 1.42zM23.956 13.309c0 0.784-0.636 1.42-1.42 1.42s-1.42-0.636-1.42-1.42c0-0.784 0.636-1.42 1.42-1.42s1.42 0.636 1.42 1.42zM16 28.8c7.069 0 12.8-5.731 12.8-12.8s-5.731-12.8-12.8-12.8-12.8 5.731-12.8 12.8 5.731 12.8 12.8 12.8zM16 30.667c-8.1 0-14.667-6.566-14.667-14.667s6.566-14.667 14.667-14.667 14.667 6.566 14.667 14.667-6.566 14.667-14.667 14.667z"></path></svg>